<mxfile host="Electron" modified="2024-05-14T08:21:04.071Z" agent="Mozilla/5.0 (Windows NT 10.0; Win64; x64) AppleWebKit/537.36 (KHTML, like Gecko) draw.io/24.4.0 Chrome/120.0.6099.109 Electron/28.1.0 Safari/537.36" etag="PYGxdPPE1rKWJrK14Cgd" version="24.4.0" type="device">
  <diagram name="newStudent" id="OlnSrydq9xUQFclj--Ud">
    <mxGraphModel dx="1050" dy="669" grid="1" gridSize="10" guides="1" tooltips="1" connect="1" arrows="1" fold="1" page="1" pageScale="1" pageWidth="291" pageHeight="413" math="0" shadow="0">
      <root>
        <mxCell id="0" />
        <mxCell id="1" parent="0" />
        <mxCell id="vxNPVa4YINoBgpkL03Ra-1" value="栈（stack）" style="swimlane;rounded=0;strokeColor=#6c8ebf;align=center;verticalAlign=middle;fontFamily=OPPO Sans;fontSize=18;fillColor=#dae8fc;sketch=1;curveFitting=1;jiggle=1;" vertex="1" parent="1">
          <mxGeometry x="40" y="40" width="220" height="260" as="geometry" />
        </mxCell>
        <mxCell id="vxNPVa4YINoBgpkL03Ra-2" value="main方法" style="swimlane;rounded=0;strokeColor=#ae4132;align=center;verticalAlign=middle;fontFamily=OPPO Sans;fontSize=18;fillColor=#fad9d5;" vertex="1" parent="vxNPVa4YINoBgpkL03Ra-1">
          <mxGeometry x="10" y="95" width="200" height="120" as="geometry" />
        </mxCell>
        <mxCell id="vxNPVa4YINoBgpkL03Ra-3" value="Student stu = 0x0001;" style="rounded=0;strokeColor=#0e8088;align=center;verticalAlign=middle;fontFamily=OPPO Sans;fontSize=18;fillColor=#b0e3e6;sketch=1;curveFitting=1;jiggle=0;disableMultiStroke=0;" vertex="1" parent="vxNPVa4YINoBgpkL03Ra-2">
          <mxGeometry x="10" y="41.5" width="180" height="37" as="geometry" />
        </mxCell>
        <mxCell id="vxNPVa4YINoBgpkL03Ra-4" value="堆（heap）" style="swimlane;rounded=0;strokeColor=#82b366;align=center;verticalAlign=middle;fontFamily=OPPO Sans;fontSize=18;fillColor=#d5e8d4;sketch=1;curveFitting=1;jiggle=1;" vertex="1" parent="1">
          <mxGeometry x="300" y="40" width="328" height="260" as="geometry" />
        </mxCell>
        <UserObject label="new Student()" tooltip="0x0001" id="vxNPVa4YINoBgpkL03Ra-5">
          <mxCell style="swimlane;rounded=0;strokeColor=#ae4132;align=center;verticalAlign=middle;fontFamily=OPPO Sans;fontSize=18;fillColor=#fad9d5;startSize=23;points=[[0,0,0,0,0],[0,0.05,0,0,0],[0,0.5,0,0,0],[0,0.75,0,0,0],[0,1,0,0,0],[0.25,0,0,0,0],[0.25,1,0,0,0],[0.5,0,0,0,0],[0.5,1,0,0,0],[0.75,0,0,0,0],[0.75,1,0,0,0],[1,0,0,0,0],[1,0.25,0,0,0],[1,0.5,0,0,0],[1,0.75,0,0,0],[1,1,0,0,0]];" vertex="1" parent="vxNPVa4YINoBgpkL03Ra-4">
            <mxGeometry x="14" y="80" width="300" height="160" as="geometry" />
          </mxCell>
        </UserObject>
        <mxCell id="vxNPVa4YINoBgpkL03Ra-6" value="null" style="shape=step;perimeter=stepPerimeter;fixedSize=1;rounded=0;strokeColor=#23445d;align=center;verticalAlign=middle;fontFamily=OPPO Sans;fontSize=18;fillColor=#bac8d3;sketch=1;curveFitting=1;jiggle=0;" vertex="1" parent="vxNPVa4YINoBgpkL03Ra-5">
          <mxGeometry x="74" y="46" width="79" height="40" as="geometry" />
        </mxCell>
        <mxCell id="vxNPVa4YINoBgpkL03Ra-7" value="stu1" style="shape=step;perimeter=stepPerimeter;fixedSize=1;rounded=0;strokeColor=#23445d;align=center;verticalAlign=middle;fontFamily=OPPO Sans;fontSize=18;fillColor=#bac8d3;sketch=1;curveFitting=1;jiggle=0;" vertex="1" parent="vxNPVa4YINoBgpkL03Ra-5">
          <mxGeometry x="143" y="46" width="79" height="40" as="geometry" />
        </mxCell>
        <mxCell id="vxNPVa4YINoBgpkL03Ra-8" value="stu2" style="shape=step;perimeter=stepPerimeter;fixedSize=1;rounded=0;strokeColor=#0e8088;align=center;verticalAlign=middle;fontFamily=OPPO Sans;fontSize=18;fillColor=#b0e3e6;sketch=1;curveFitting=1;jiggle=0;" vertex="1" parent="vxNPVa4YINoBgpkL03Ra-5">
          <mxGeometry x="213" y="46" width="79" height="40" as="geometry" />
        </mxCell>
        <mxCell id="vxNPVa4YINoBgpkL03Ra-9" value="0" style="shape=step;perimeter=stepPerimeter;fixedSize=1;rounded=0;strokeColor=#23445d;align=center;verticalAlign=middle;fontFamily=OPPO Sans;fontSize=18;fillColor=#bac8d3;sketch=1;curveFitting=1;jiggle=0;" vertex="1" parent="vxNPVa4YINoBgpkL03Ra-5">
          <mxGeometry x="74" y="96" width="79" height="40" as="geometry" />
        </mxCell>
        <mxCell id="vxNPVa4YINoBgpkL03Ra-10" value="18" style="shape=step;perimeter=stepPerimeter;fixedSize=1;rounded=0;strokeColor=#23445d;align=center;verticalAlign=middle;fontFamily=OPPO Sans;fontSize=18;fillColor=#bac8d3;sketch=1;curveFitting=1;jiggle=0;" vertex="1" parent="vxNPVa4YINoBgpkL03Ra-5">
          <mxGeometry x="143" y="96" width="79" height="40" as="geometry" />
        </mxCell>
        <mxCell id="vxNPVa4YINoBgpkL03Ra-11" value="19" style="shape=step;perimeter=stepPerimeter;fixedSize=1;rounded=0;strokeColor=#0e8088;align=center;verticalAlign=middle;fontFamily=OPPO Sans;fontSize=18;fillColor=#b0e3e6;sketch=1;curveFitting=1;jiggle=0;" vertex="1" parent="vxNPVa4YINoBgpkL03Ra-5">
          <mxGeometry x="213" y="96" width="79" height="40" as="geometry" />
        </mxCell>
        <mxCell id="vxNPVa4YINoBgpkL03Ra-12" value="name" style="ellipse;rounded=0;strokeColor=#0e8088;align=center;verticalAlign=middle;fontFamily=OPPO Sans;fontSize=18;fillColor=#b0e3e6;sketch=1;curveFitting=1;jiggle=0;" vertex="1" parent="vxNPVa4YINoBgpkL03Ra-5">
          <mxGeometry x="11" y="47" width="63" height="40" as="geometry" />
        </mxCell>
        <mxCell id="vxNPVa4YINoBgpkL03Ra-13" value="age" style="ellipse;rounded=0;strokeColor=#0e8088;align=center;verticalAlign=middle;fontFamily=OPPO Sans;fontSize=18;fillColor=#b0e3e6;sketch=1;curveFitting=1;jiggle=0;" vertex="1" parent="vxNPVa4YINoBgpkL03Ra-5">
          <mxGeometry x="11" y="96" width="63" height="40" as="geometry" />
        </mxCell>
        <mxCell id="vxNPVa4YINoBgpkL03Ra-14" value="" style="edgeStyle=orthogonalEdgeStyle;rounded=0;orthogonalLoop=1;jettySize=auto;fontFamily=OPPO Sans;fontSize=18;fontColor=default;dashed=1;startArrow=classic;startFill=1;" edge="1" parent="vxNPVa4YINoBgpkL03Ra-4" source="vxNPVa4YINoBgpkL03Ra-15" target="vxNPVa4YINoBgpkL03Ra-16">
          <mxGeometry relative="1" as="geometry" />
        </mxCell>
        <mxCell id="vxNPVa4YINoBgpkL03Ra-15" value="0x0001" style="shadow=0;dashed=0;shape=mxgraph.bootstrap.popover;fillColor=#1A1A1A;strokeColor=none;dx=45;dy=5;rSize=5;verticalAlign=top;spacing=10;fontSize=12;spacingLeft=0;align=center;spacingTop=-10;fontColor=#FFFFFF;rounded=0;fontFamily=OPPO Sans;" vertex="1" parent="vxNPVa4YINoBgpkL03Ra-4">
          <mxGeometry x="20" y="50" width="90" height="30" as="geometry" />
        </mxCell>
        <mxCell id="vxNPVa4YINoBgpkL03Ra-16" value="this" style="shadow=0;dashed=0;shape=mxgraph.bootstrap.popover;fillColor=#1A1A1A;strokeColor=none;dx=45;dy=5;rSize=5;verticalAlign=top;spacing=10;fontSize=12;spacingLeft=0;align=center;spacingTop=-10;fontColor=#FFFFFF;rounded=0;fontFamily=OPPO Sans;" vertex="1" parent="vxNPVa4YINoBgpkL03Ra-4">
          <mxGeometry x="224" y="50" width="90" height="30" as="geometry" />
        </mxCell>
        <mxCell id="vxNPVa4YINoBgpkL03Ra-17" value="方法区" style="swimlane;rounded=0;strokeColor=#b46504;align=center;verticalAlign=middle;fontFamily=OPPO Sans;fontSize=18;fillColor=#fad7ac;sketch=1;curveFitting=1;jiggle=1;" vertex="1" parent="1">
          <mxGeometry x="670" y="40" width="212" height="260" as="geometry" />
        </mxCell>
        <mxCell id="vxNPVa4YINoBgpkL03Ra-18" value="class 字节码" style="swimlane;rounded=0;strokeColor=#ae4132;align=center;verticalAlign=middle;fontFamily=OPPO Sans;fontSize=18;fillColor=#fad9d5;" vertex="1" parent="vxNPVa4YINoBgpkL03Ra-17">
          <mxGeometry x="12" y="70" width="188" height="170" as="geometry" />
        </mxCell>
        <mxCell id="vxNPVa4YINoBgpkL03Ra-19" value="StudentDemo.class" style="rounded=0;strokeColor=#0e8088;align=center;verticalAlign=middle;fontFamily=OPPO Sans;fontSize=18;fillColor=#b0e3e6;sketch=1;curveFitting=1;jiggle=0;" vertex="1" parent="vxNPVa4YINoBgpkL03Ra-18">
          <mxGeometry x="10" y="50" width="170" height="40" as="geometry" />
        </mxCell>
        <mxCell id="vxNPVa4YINoBgpkL03Ra-20" value="Student.class" style="rounded=0;strokeColor=#0e8088;align=center;verticalAlign=middle;fontFamily=OPPO Sans;fontSize=18;fillColor=#b0e3e6;sketch=1;curveFitting=1;jiggle=0;" vertex="1" parent="vxNPVa4YINoBgpkL03Ra-18">
          <mxGeometry x="10" y="100" width="170" height="40" as="geometry" />
        </mxCell>
        <mxCell id="vxNPVa4YINoBgpkL03Ra-21" value="" style="edgeStyle=orthogonalEdgeStyle;rounded=0;orthogonalLoop=1;jettySize=auto;exitX=1;exitY=0.5;exitDx=0;exitDy=0;entryX=0;entryY=0.05;entryDx=0;entryDy=0;entryPerimeter=0;fontFamily=OPPO Sans;fontSize=18;fontColor=default;" edge="1" parent="1" source="vxNPVa4YINoBgpkL03Ra-3" target="vxNPVa4YINoBgpkL03Ra-5">
          <mxGeometry relative="1" as="geometry">
            <Array as="points">
              <mxPoint x="280" y="195" />
              <mxPoint x="280" y="128" />
            </Array>
          </mxGeometry>
        </mxCell>
      </root>
    </mxGraphModel>
  </diagram>
</mxfile>
